# xmcd
#
# Track frame offsets:
#	182
#	21222
#	36515
#	53695
#	68860
#	90250
#	107492
#	119540
#	136497
#	149680
#	168382
#	186442
#	203062
#	221605
#	235545
#	257452
#	271112
#	285807
#	297970
#	310662
#
# Disc length: 4331
#
# Revision: 2
# Processed by: cddbd v1.5.1PL0 Copyright (c) Steve Scherf et al.
# Submitted via: audiograbber 1.80.04
# Normalized: r1:DSETVAR1
#
DISCID=2010e914
DTITLE=Various Artist - Culture Dance 10 vol 2
DYEAR=1996
DGENRE=pop
TTITLE0=Chic - Le freak
TTITLE1=Boney M - Daddy Cool
TTITLE2=Boys Town Gang - Can't take my eyes off you
TTITLE3=Village People - YMCA
TTITLE4=Sheila and B.Devotion - Spacer
TTITLE5=Imagination - Just an illusion
TTITLE6=Jocelyn Brown - Somebody else's Guy
TTITLE7=Indeep - Last night a dj saved my life
TTITLE8=Kool and the Gang - Fresh
TTITLE9=Earth wind and fire - Let's groove
TTITLE10=Alphaville - Big in japan
TTITLE11=Eurythmics - Sexcrime (1984)
TTITLE12=Bronski Beat - Smalltown Boy
TTITLE13=OMD - Enola Gay
TTITLE14=Soft Cell - Tainted love
TTITLE15=Jimmy Cliff - Reggae night
TTITLE16=Gipsy Kings - Bamboleo
TTITLE17=Charles D.Lewis - Soca Dance
TTITLE18=Kassav - Sye bwa
TTITLE19=Zouk Machine - Maldon
EXTD=
EXTT0=
EXTT1=
EXTT2=
EXTT3=
EXTT4=
EXTT5=
EXTT6=
EXTT7=
EXTT8=
EXTT9=
EXTT10=
EXTT11=
EXTT12=
EXTT13=
EXTT14=
EXTT15=
EXTT16=
EXTT17=
EXTT18=
EXTT19=
PLAYORDER=
